<svg id="Cloud" xmlns="http://www.w3.org/2000/svg" viewBox="0 0 192 192"><title>Angel_Trumpet</title><path d="M128.37,66.12,156,88c-9.41,9.41-21.64,16-36,16a54.56,54.56,0,0,1-20.63-4.09L88,176c-32,0-72-36-80-60L50.43,94.33C34.88,91.25,24,84.2,24,76H48.15C28.22,70.76,14.29,60,16,50.35l37.29,6.57a95.89,95.89,0,0,1-10.22-3.08C22.56,46.37,8,33.38,8,23.29A10.22,10.22,0,0,1,8.57,20L64.2,40.24a36,36,0,0,0,64.17,25.88ZM172,16v8c0,7.74-8.27,16-16,16H123.66a24,24,0,1,0-2.88,16H156c7.73,0,16,8.27,16,16v8l12,.1V16Z"/></svg>