<svg id="Cloud" xmlns="http://www.w3.org/2000/svg" viewBox="0 0 192 192"><title>API</title><path d="M138,88a46,46,0,1,0,46,46A46,46,0,0,0,138,88Zm18,46a15.85,15.85,0,0,1-.09,1.7l7.61,6.1-6,10.4-9.1-3.54a18.59,18.59,0,0,1-2.94,1.7L144,160H132l-1.48-9.64a18.59,18.59,0,0,1-2.94-1.7l-9.1,3.54-6-10.4,7.61-6.1a16.1,16.1,0,0,1,0-3.4l-7.61-6.1,6-10.4,9.1,3.54a18.59,18.59,0,0,1,2.94-1.7L132,108h12l1.48,9.64a18.59,18.59,0,0,1,2.94,1.7l9.1-3.54,6,10.4-7.61,6.1A16,16,0,0,1,156,134ZM168,12H24A16,16,0,0,0,8,28V156a16,16,0,0,0,16,16H94.24a57.82,57.82,0,0,1-8.06-12H24a4,4,0,0,1-4-4V56H172V87.05a58.79,58.79,0,0,1,12,11.68V28A16,16,0,0,0,168,12ZM26,40a6,6,0,1,1,6-6A6,6,0,0,1,26,40Zm120,0a6,6,0,1,1,6-6A6,6,0,0,1,146,40Zm20,0a6,6,0,1,1,6-6A6,6,0,0,1,166,40Zm-22,94a6,6,0,1,1-6-6A6,6,0,0,1,144,134Z"/></svg>