<svg id="Cloud" xmlns="http://www.w3.org/2000/svg" viewBox="0 0 192 192"><title>Apple</title><path d="M68,8h2a30,30,0,0,1,30,30V52c3.75-1.13,12-4,18-4,26.12,0,50,24.64,50,52a53.16,53.16,0,0,1-4,20.39l-22.31,43.68C136.66,176.3,129.5,184,116,184c-6.68,0-15.65-4-22-4s-15.32,4-22,4c-13.5,0-20.66-7.7-25.65-19.93L24,120.39A53.16,53.16,0,0,1,20,100c0-27.36,23.88-52,50-52,5.09,0,13.79,2.82,18,4V38A18,18,0,0,0,70,20H68Zm40,28h32c7.11,0,15.87-3.15,20.69-10.73L172,8H138c-7.11,0-13.81,2.79-18.63,10.37Z"/></svg>