<svg id="Cloud" xmlns="http://www.w3.org/2000/svg" viewBox="0 0 192 192"><title>Coin_Stack_Dollar</title><path d="M129.23,142H184v28H105.15A70.46,70.46,0,0,0,129.23,142ZM136,112a69.9,69.9,0,0,1-2.36,18H184V102H135.27A70.16,70.16,0,0,1,136,112ZM68,22v20a69.46,69.46,0,0,1,30.44,8H184V22Zm64.44,68H184V62H114.92A70.16,70.16,0,0,1,132.44,90ZM66,54a58,58,0,1,0,58,58A58,58,0,0,0,66,54Zm14,48v-2a6,6,0,0,0-6-6H58a6,6,0,0,0,0,12H74a18,18,0,0,1,0,36H72v8H60v-8H58a18,18,0,0,1-18-18v-2H52v2a6,6,0,0,0,6,6H74a6,6,0,0,0,0-12H58a18,18,0,0,1,0-36h2V74H72v8h2a18,18,0,0,1,18,18v2Z"/></svg>