<svg id="Cloud" xmlns="http://www.w3.org/2000/svg" viewBox="0 0 192 192"><title>Crops_Farming</title><path d="M164,68c-34.09,0-48,13.5-48,48C150.09,116,164,102.5,164,68Z"/><path d="M116,168c34.09,0,48-13.5,48-48C129.91,120,116,133.5,116,168Z"/><path d="M120,50C120,25.16,96,8,96,8S72,25.16,72,50c0,15.23,9,27.56,16,34.83v22.39A23.82,23.82,0,0,0,76,104c0-25-18.17-36-48-36,0,34.5,13.91,48,48,48a12,12,0,0,1,12,12v31.22A23.82,23.82,0,0,0,76,156c0-25-18.17-36-48-36,0,34.5,13.91,48,48,48a12,12,0,0,1,12,12v4h16V84.83C111,77.56,120,65.23,120,50Z"/></svg>