<svg id="Cloud" xmlns="http://www.w3.org/2000/svg" viewBox="0 0 192 192"><title>Easel_Profit</title><polygon points="52 92 68 92 68 116 80 116 80 84 96 84 96 116 108 116 108 65.08 97.12 74.15 86.88 61.85 116 37.59 145.12 61.85 134.88 74.15 124 65.08 124 116 176 116 176 16 104 16 104 8 88 8 88 16 16 16 16 116 52 116 52 92"/><polygon points="184 140 184 128 8 128 8 140 90 140 90 145.52 59.52 175.52 68 184 90 162.49 90 184 102 184 102 162.49 124 184 132.48 175.52 102 145.52 102 140 184 140"/></svg>