<svg id="Cloud" xmlns="http://www.w3.org/2000/svg" viewBox="0 0 192 192"><title>Gears</title><path d="M112,124a44.25,44.25,0,0,0-.46-6.35L128,104.91l-13.64-23.2L95.29,89.5a43.7,43.7,0,0,0-11.05-6.39L81.64,64H54.36l-2.5,19.07A43.79,43.79,0,0,0,40.71,89.5L21.64,81.71,8,104.91l16.46,12.74a43.92,43.92,0,0,0,0,12.68L8,143.09,21.27,166.5l19.47-8a44,44,0,0,0,11.13,6.4L54.36,184H81.64l2.6-19.11a43.84,43.84,0,0,0,11-6.36l19.48,8L128,143.09l-16.46-12.76A44.08,44.08,0,0,0,112,124ZM68,140a16,16,0,1,1,16-16A16,16,0,0,1,68,140ZM172,48a27.55,27.55,0,0,0-.2-3.29L184,35.27l-9.09-15.46-14.14,5.77A27.88,27.88,0,0,0,155,22.26L153.09,8H134.91l-2,14.27a27.7,27.7,0,0,0-5.71,3.31l-14.14-5.77L104,35.27l12.2,9.44A27.55,27.55,0,0,0,116,48a27.09,27.09,0,0,0,.2,3.27L104,60.73l8.85,15.6,14.4-5.89a28.22,28.22,0,0,0,5.8,3.34L134.91,88h18.18L155,73.74a28.67,28.67,0,0,0,5.71-3.3l14.4,5.89L184,60.73l-12.2-9.46A27.09,27.09,0,0,0,172,48ZM144,60a12,12,0,1,1,12-12A12,12,0,0,1,144,60Z"/></svg>