<svg id="Cloud" xmlns="http://www.w3.org/2000/svg" viewBox="0 0 192 192"><title>Globe</title><path d="M96,8a88,88,0,0,0,0,176c22.09,0,40-39.4,40-88S118.09,8,96,8Zm24,88a172.25,172.25,0,0,1-1.16,20H73.16A172.25,172.25,0,0,1,72,96c0-5.41.25-10.77.74-16h46.52C119.75,85.23,120,90.59,120,96ZM24,96a72.12,72.12,0,0,1,1.81-16H56.66C56.23,85.19,56,90.54,56,96a190.41,190.41,0,0,0,1,20H26.85A71.77,71.77,0,0,1,24,96Zm85.72-55.6A108.94,108.94,0,0,1,117,64H75a108.94,108.94,0,0,1,7.25-23.6C87.75,28.37,93.48,24,96,24S104.25,28.37,109.72,40.4ZM70.17,28.81c-5,9.38-9,21.44-11.44,35.19H31.53A72.41,72.41,0,0,1,70.17,28.81ZM33.69,132h25.8c2.47,12.09,6.14,22.73,10.68,31.19A72.38,72.38,0,0,1,33.69,132Zm76,19.6c-5.47,12-11.2,16.4-13.72,16.4s-8.25-4.37-13.72-16.4a104.34,104.34,0,0,1-6.4-19.6h40.24A104.34,104.34,0,0,1,109.72,151.6ZM184,96a88,88,0,0,1-57.84,82.69,82,82,0,0,0,9.05-15.5C143.46,145,148,121.18,148,96s-4.54-49-12.79-67.19a82,82,0,0,0-9.05-15.5A88,88,0,0,1,184,96Z"/></svg>