<svg id="Cloud" xmlns="http://www.w3.org/2000/svg" viewBox="0 0 192 192"><title>Global_Team</title><path d="M144,125.09V96l8-5V72c0-4.85-6.27-12-18-12a21.69,21.69,0,0,0-10,2V88l-8,4v18.68a72.87,72.87,0,0,0-8-1.73V84l8-3.55V60c0-6.13-5.16-12-20-12S76,53.87,76,60V80.45L84,84v25a72.87,72.87,0,0,0-8,1.73V92l-8-4V62a21.69,21.69,0,0,0-10-2c-11.74,0-18,7.15-18,12V91l8,5v29.09A75.83,75.83,0,0,0,20,184H36a59.94,59.94,0,0,1,2.18-16H56.89A143.36,143.36,0,0,0,56,184H72a125.28,125.28,0,0,1,1-16h46a125.28,125.28,0,0,1,1,16h16a143.36,143.36,0,0,0-.89-16h18.71A59.94,59.94,0,0,1,156,184h16A75.83,75.83,0,0,0,144,125.09ZM59.72,152H45.28a60.58,60.58,0,0,1,21.85-20.58A97.19,97.19,0,0,0,59.72,152Zm16.56,0a76.24,76.24,0,0,1,5.59-14.29C86.26,129.38,91.8,124,96,124s9.74,5.38,14.13,13.71A76.24,76.24,0,0,1,115.72,152Zm56,0a97.19,97.19,0,0,0-7.41-20.58A60.58,60.58,0,0,1,146.72,152Z"/><circle cx="134" cy="38" r="14"/><circle cx="58" cy="38" r="14"/><path d="M96,40A16,16,0,1,0,80,24,16,16,0,0,0,96,40Z"/></svg>