<svg id="Cloud" xmlns="http://www.w3.org/2000/svg" viewBox="0 0 192 192"><title>Group_Think</title><path d="M148,8H44A12,12,0,0,0,32,20V80A12,12,0,0,0,44,92H80l16,16,16-16h36a12,12,0,0,0,12-12V20A12,12,0,0,0,148,8ZM52,32h48V44H52Zm80,36H52V56h80Z"/><circle cx="95.96" cy="136" r="20"/><circle cx="156.04" cy="136" r="20"/><path d="M36,164c-16.38,0-28,8.64-28,16,0,0,8,4,28,4s28-4,28-4C64,172.64,52.38,164,36,164Z"/><path d="M96,164c-16.38,0-28,8.64-28,16,0,0,8,4,28,4s28-4,28-4C124,172.64,112.38,164,96,164Z"/><path d="M156,164c-16.38,0-28,8.64-28,16,0,0,8,4,28,4s28-4,28-4C184,172.64,172.38,164,156,164Z"/><circle cx="36.04" cy="136" r="20"/></svg>