<svg id="Cloud" xmlns="http://www.w3.org/2000/svg" viewBox="0 0 192 192"><title>Guitar</title><path d="M168,8,140,28v6.1a12.23,12.23,0,0,1-4,9.9L104,76a31.5,31.5,0,0,0-20-8c-7,0-12.64,2.91-16,8C59.89,88.29,53.84,91.22,36,96c-17.27,4.63-28,22-28,40,0,12,4.21,20.19,16,32s20,16,32,16c18,0,35.37-10.73,40-28,4.78-17.84,7.71-23.89,20-32,5.09-3.36,8-9,8-16a31.5,31.5,0,0,0-8-20l32-32a12.23,12.23,0,0,1,9.9-4H164l20-28ZM55.8,156,36,136.2l8.49-8.48,19.79,19.79ZM76,128a12,12,0,1,1,12-12A12,12,0,0,1,76,128Z"/></svg>