<svg id="Cloud" xmlns="http://www.w3.org/2000/svg" viewBox="0 0 192 192"><title>Hourglass_Half</title><path d="M68.82,64.31,56,46.76C52.92,42.33,52,40,52,34V24h88V34c0,6-.92,8.33-4,12.76L123.18,64.31C116.63,66.75,106.24,68,96,68S75.37,66.75,68.82,64.31ZM52,158c0-6,.92-8.33,4-12.76l32-43.77v42.22C79.32,151.2,65.66,160.05,52,160Zm88,2c-13.66.05-27.32-8.8-36-16.31V101.47l32,43.77c3.07,4.43,4,6.78,4,12.76ZM36,168H28v16H164V168h-8V158a36,36,0,0,0-6.83-21.86L120,96l29.17-40.13A36,36,0,0,0,156,34V24h8V8H28V24h8V34a36,36,0,0,0,6.83,21.87L72,96,42.83,136.14A36,36,0,0,0,36,158v10Z"/></svg>