<svg id="Cloud" xmlns="http://www.w3.org/2000/svg" viewBox="0 0 192 192"><title>Internet_Cafe_WiFi</title><path d="M34.41,45,22,34.76C35.57,18.41,59.07,8,82,8s46.43,10.41,60,26.76L129.59,45C118.89,32.16,99.9,24,82,24S45.11,32.16,34.41,45ZM82,84,98.55,70.42a24.54,24.54,0,0,0-33.1,0Zm0-32c9.22,0,17.52,3.93,24.76,11.68l12.39-10.17C108.88,42.15,96.17,36,82,36S55.12,42.15,44.85,53.51L57.24,63.68C64.48,55.93,72.78,52,82,52ZM30,92v40a52,52,0,0,0,52,52,52.72,52.72,0,0,0,46.61-28h9.72A31.67,31.67,0,0,0,170,124V92Zm124,32a16.1,16.1,0,0,1-16.15,16h-4.46a52.77,52.77,0,0,0,.61-8V108h20Z"/></svg>