<svg id="Cloud" xmlns="http://www.w3.org/2000/svg" viewBox="0 0 192 192"><title>Movie_Search</title><path d="M99.45,148.26c-.55-1.4-1-2.82-1.45-4.26H52V48h88V80.37a51.68,51.68,0,0,1,6-.37,49.78,49.78,0,0,1,19.59,4H172v3.31a50.37,50.37,0,0,1,12,10.25V8H172V20H152V8H140V32H52V8H40V20H20V8H8V184H20V172H40v12H52V160H87.71ZM152,40h20V64H152ZM40,152H20V128H40Zm0-44H20V84H40Zm0-44H20V40H40ZM146,92a38,38,0,0,0-32.18,58.18L92,172l12,12,21.82-21.82A38,38,0,1,0,146,92Zm0,60a22,22,0,1,1,22-22A22,22,0,0,1,146,152Z"/></svg>