<svg id="Cloud" xmlns="http://www.w3.org/2000/svg" viewBox="0 0 192 192"><title>Printer_Checkmark</title><path d="M184,138a46,46,0,1,1-46-46A46,46,0,0,1,184,138Zm-20-9.65L156,120l-24,24-8-8-8,8,16,16ZM128,44h20c6.4,0,11.75,1.42,16,4L124,8a30.42,30.42,0,0,1,4,16ZM102.73,184a58.79,58.79,0,0,1-11.68-12H36V152H81.72a57.87,57.87,0,0,1,6.66-44H28A20,20,0,0,0,8,128v40H24v16ZM138,80a57.66,57.66,0,0,1,26,6.18V72a16,16,0,0,0-16-16H116V24A16,16,0,0,0,100,8H28V96H98.06A57.79,57.79,0,0,1,138,80ZM44,32H72V44H44Zm0,36V56H92V68Z"/></svg>