<svg id="Cloud" xmlns="http://www.w3.org/2000/svg" viewBox="0 0 192 192"><title>Vinyl_Record_DJ</title><path d="M158.32,68.08a20.23,20.23,0,0,0-3.74.69,20,20,0,0,0-16.09-12.61,22,22,0,0,0-2.57-.16A20,20,0,0,0,119,65.3a19.93,19.93,0,0,0-7.1-1.3h-.18a20.2,20.2,0,0,0-6.93,1.3A28,28,0,1,0,67.6,106.69l-.8.37-10.68,5.45s15.22,29.9,24.14,47.4a76,76,0,1,1,78.06-91.83ZM84,76a8,8,0,1,0,8,8A8,8,0,0,0,84,76Zm.75,40.81A15.79,15.79,0,0,1,92.56,122c.25.35,11.44,15.18,11.44,15.18V83.92A7.81,7.81,0,0,1,111.86,76,8.05,8.05,0,0,1,120,83.92v34.46l3.25.82L128,75a8,8,0,0,1,15.87,2l-5,46.45,1.9.52,11.64-38.22a8,8,0,1,1,15.31,4.46L156,128.17l2.64.72,9.84-23.65a8,8,0,1,1,15,5.55l-20,51C158.33,175.84,142.87,184,128,184a36,36,0,0,1-31.08-17.82c-.25-.43-24.67-48.42-24.67-48.42A15.9,15.9,0,0,1,79.57,116,17.34,17.34,0,0,1,84.75,116.81Z"/></svg>