<svg id="Cloud" xmlns="http://www.w3.org/2000/svg" viewBox="0 0 192 192"><title>Bath</title><path d="M176,136a8,8,0,0,0,0-16H112c-32,0-76-20-96-20a8,8,0,0,0,0,16l8,36c1.15,5.76,3.64,11.51,8,15.62V184H44l8-8h92l8,8h12V167.62c4.36-4.11,6.85-9.86,8-15.62Zm-4-96v68H160V40c0-11-7.81-20-16-20a15.35,15.35,0,0,0-6.6,1.69c4.61,7.62,4.27,18.05-1.67,26.31L100,22.32c6.75-9.39,18.48-12.85,27.91-8.87A27.5,27.5,0,0,1,144,8C158.81,8,172,22.35,172,40ZM112,50a6,6,0,1,1-6-6A6,6,0,0,1,112,50Zm0,24a6,6,0,1,1-6-6A6,6,0,0,1,112,74ZM72,74a6,6,0,1,1-6-6A6,6,0,0,1,72,74Zm40,24a6,6,0,1,1-6-6A6,6,0,0,1,112,98ZM92,62a6,6,0,1,1-6-6A6,6,0,0,1,92,62Zm0,24a6,6,0,1,1-6-6A6,6,0,0,1,92,86Z"/></svg>