<svg id="Cloud" xmlns="http://www.w3.org/2000/svg" viewBox="0 0 192 192"><title>Bullhorn</title><path d="M144,56.14,172,40l8,13.86L144,74.62ZM144,88v16h40V88Zm0,47.86L172,152l8-13.86-36-20.76ZM132,32V160L92.71,143.16C88.21,151.28,79,156,68.87,156a34.24,34.24,0,0,1-12.65-2.45c-12.39-4.9-20.22-15.92-20.22-27a22.59,22.59,0,0,1,1.2-7.19l-14.12-6.05A16,16,0,0,1,8,124V68A16,16,0,0,1,23.08,78.68ZM81.57,138.39,48.28,124.12a11,11,0,0,0-.28,2.44c0,6.38,5.2,12.89,12.64,15.83A22.2,22.2,0,0,0,68.87,144C74.34,144,79.05,141.86,81.57,138.39Z"/></svg>