<svg id="Cloud" xmlns="http://www.w3.org/2000/svg" viewBox="0 0 192 192"><title>Camera_Switch_Direction</title><path d="M96,76a16,16,0,1,1,16-16A16,16,0,0,1,96,76Zm0,80c-48.6,0-88-17-88-38,0-10.1,9.12-19.27,24-26.08V36A12,12,0,0,1,44,24H60L72,8h48l12,16h16a12,12,0,0,1,12,12V91.92c14.88,6.81,24,16,24,26.08,0,12.47-13.92,23.54-35.42,30.47l.12-.12-12.9-12.9a102.12,102.12,0,0,0,16.08-5.27C164.18,124.87,168,119.39,168,118s-3.82-6.87-16.12-12.18c-1.47-.64-3-1.24-4.62-1.82H44.74c-1.6.58-3.15,1.18-4.62,1.82C27.82,111.13,24,116.61,24,118s3.82,6.87,16.12,12.18C54.57,136.42,74.94,140,96,140c1.56,0,2.45,0,4-.07L84,124l12-12,36,36L96,184,84,172l16-16Zm28-96A28,28,0,1,0,96,88,28,28,0,0,0,124,60Z"/></svg>