<svg id="Cloud" xmlns="http://www.w3.org/2000/svg" viewBox="0 0 192 192"><title>Carpool</title><path d="M72,40A16,16,0,1,1,56,56,16,16,0,0,1,72,40Zm48,0a16,16,0,1,1-16,16A16,16,0,0,1,120,40Zm64,32H168l-5.14-32.28C160.85,26.67,149.2,16,136,16H56C42.8,16,31.15,26.67,29.14,39.72L24,72H8V84l6.71,6C13,92.93,12,104.31,12,108v60a8,8,0,0,0,8,8H32a8,8,0,0,0,8-8v-8H152v8a8,8,0,0,0,8,8h12a8,8,0,0,0,8-8V108c0-3.69-1-15.07-2.71-18L184,84ZM44,45.55C45.11,38.33,48.7,32,56,32h80c7.3,0,10.89,6.33,12,13.55L152,80H40ZM42,132a10,10,0,1,1,10-10A10,10,0,0,1,42,132Zm108,0a10,10,0,1,1,10-10A10,10,0,0,1,150,132Z"/></svg>