<svg id="Cloud" xmlns="http://www.w3.org/2000/svg" viewBox="0 0 192 192"><title>Database_Wrench_Configure</title><path d="M138,92a46,46,0,1,0,46,46A46,46,0,0,0,138,92Zm6,60a19.82,19.82,0,0,1-7.29-1.39l-13.49,13.48a30.24,30.24,0,0,1-11.31-11.31l13.48-13.49a20,20,0,0,1,25.9-25.9l-8.95,9a8,8,0,0,0,11.32,11.32l9-9A20,20,0,0,1,144,152ZM80.06,135.71A57.76,57.76,0,0,1,94.25,100L92,100c-23.69,0-46.13-3.13-63.19-8.82-8.95-3-15.55-6.38-20.4-9.94A9.66,9.66,0,0,0,8,84v24C8,122.11,39.32,133.78,80.06,135.71Zm95.53-54.47A60.32,60.32,0,0,1,165.65,87,57.72,57.72,0,0,1,176,94.24V84A9.66,9.66,0,0,0,175.59,81.24ZM80.84,147.76c-19.51-.83-37.68-3.79-52-8.58-8.95-3-15.55-6.38-20.4-9.94A9.66,9.66,0,0,0,8,132v24c0,15.46,37.61,28,84,28,3.54,0,7-.08,10.45-.22A58,58,0,0,1,80.84,147.76ZM92,88c6.09,0,12-.22,17.76-.63A57.54,57.54,0,0,1,138,80a58.58,58.58,0,0,1,10,.87c17.2-5.12,28-12.57,28-20.87V36c0-15.46-37.61-28-84-28S8,20.54,8,36V60C8,75.46,45.61,88,92,88ZM24,33.09C33,27.59,56,20,92,20s59,7.59,68,13.09c3.09,1.89,3.09,3.93,0,5.82C151,44.41,128,52,92,52S33,44.41,24,38.91C20.91,37,20.91,35,24,33.09Z"/></svg>