<svg id="Cloud" xmlns="http://www.w3.org/2000/svg" viewBox="0 0 192 192"><title>Flip_Flops</title><path d="M172,138c0,18-13.43,30-30,30s-30-12-30-30,7.56-24.15,8-38c.52-16.6-16-33-16-56,0-24,13.52-36,32-36,16,0,48,12,48,60C184,88,172,112,172,138Zm0-62c0-24-18.75-48-32-48s-20,24-20,48h12c0-12,2.34-36,8-36s20,16,20,36ZM8,84C8,36,40,24,56,24c18.48,0,32,12,32,36,0,23-16.52,39.4-16,56,.44,13.85,8,20,8,38s-13.43,30-30,30-30-12-30-30C20,128,8,104,8,84Zm24,8c0-20,14.34-36,20-36s8,24,8,36H72c0-24-6.75-48-20-48S20,68,20,92Z"/></svg>