<svg id="Cloud" xmlns="http://www.w3.org/2000/svg" viewBox="0 0 192 192"><title>Hear_Sound</title><path d="M184,72a63.94,63.94,0,0,1-32,55.42c-13.91,8-18.32,17.53-21.33,28.58a38,38,0,0,1-74.3-4.73,89.17,89.17,0,0,0,15.63-31V146a22,22,0,0,0,43.23,5.8c3.45-12.67,9.56-27.12,28.76-38.23A48,48,0,1,0,72,71.76,89.66,89.66,0,0,0,61,47.2,64,64,0,0,1,184,72ZM142.63,94.63A32,32,0,0,0,120,40h0A32,32,0,0,0,88,72v32a16,16,0,1,0,25.66-12.73v0L104,84.82V72a16,16,0,0,1,16-16,16,16,0,0,1,16,16,15.86,15.86,0,0,1-4.69,11.31ZM32,96c0-12.29-3.33-24.58-12.69-33.94L8,73.37c6.24,6.24,8,14.44,8,22.63s-1.76,16.39-8,22.63l11.31,11.31C28.67,120.58,32,108.29,32,96Zm8.53-55.15C55.73,56.05,64,76,64,96S55.73,136,40.53,151.15L29.21,139.84C41.3,127.75,48,111.88,48,96S41.3,64.25,29.21,52.16Z"/></svg>