<svg id="Cloud" xmlns="http://www.w3.org/2000/svg" viewBox="0 0 192 192"><title>Skateboarding</title><circle cx="56" cy="176" r="8"/><circle cx="128" cy="28" r="20"/><circle cx="128" cy="176" r="8"/><path d="M36,154.73A16.85,16.85,0,0,0,48.24,160h87A18,18,0,0,0,148,154.73l-8.51-8.49a6,6,0,0,1-4.25,1.76h-5.78l5.47-25.94a10,10,0,0,0-4.76-10.7l-15.87-9.25,6.92-17.64,3.88,4.65A8,8,0,0,0,131.24,92H156V76H135l-17.6-21.12A8,8,0,0,0,109,52.31l-28,8A8,8,0,0,0,76,64.67L65.46,89.33,80,96l9-21.32,10.64-3L80.06,121.47,52,140v8H48.24a4.91,4.91,0,0,1-3.76-1.76Zm60.42-20.2,6.29-16,11.16,6.5L109,148H76.65Z"/></svg>