<svg id="Cloud" xmlns="http://www.w3.org/2000/svg" viewBox="0 0 192 192"><title>Smoking_Pipe</title><path d="M59.94,84.61l16.42-9.93C62.7,56.34,53.51,56,40,56H36l-8-8L8,56V68l20,8,8-8h4C46.24,68,53.18,70.78,59.94,84.61Zm121.48,35.87C180.93,119.07,172,96,172,96H124l-8,20c-1.44,2.64-2.87,4-6,4s-4.43-1.84-5.9-4L83.17,84.59,64.55,95.85,84,148c8.53,22,22.66,36,52,36a48,48,0,0,0,45.42-63.52ZM112,8V18a18,18,0,0,0,18,18,6,6,0,0,1,0,12h-9a8,8,0,0,0,0,16h3a20,20,0,0,1,20,20H132a8,8,0,0,0-8-8h-3a20,20,0,0,1-11.63-36.24A29.87,29.87,0,0,1,100,18V8Zm28,0v8a4,4,0,0,0,4,4h16a24,24,0,0,1,4,47.66V84H152V62a6,6,0,0,1,6-6l4.42-.24A12,12,0,0,0,160,32H144a16,16,0,0,1-16-16V8Z"/></svg>