<svg id="Cloud" xmlns="http://www.w3.org/2000/svg" viewBox="0 0 192 192"><title>Watch_Alert</title><path d="M184,54c0,25.41-22.38,46-50,46a53.15,53.15,0,0,1-25.18-6.26L80,100,90,75.92A43,43,0,0,1,84,54c0-25.4,22.38-46,50-46S184,28.6,184,54ZM68.5,130.43,52,117.23V92H64v19.46l12,9.6Zm38.79-24.08L92,107.16V148H24V80H76.72l.09-3.56A55,55,0,0,1,72,54a54.15,54.15,0,0,1,.94-10H28L24.5,64H20A12,12,0,0,0,8,76v76a12,12,0,0,0,12,12h4.5L28,184H88l3.5-20H96a12,12,0,0,0,12-12V106.64ZM140,70a6,6,0,1,0-6,6A6,6,0,0,0,140,70Zm0-38H128V48l4,8h4l4-8Z"/></svg>