<svg id="Cloud" xmlns="http://www.w3.org/2000/svg" viewBox="0 0 192 192"><title>Weather-Umbrella-Rain</title><path d="M35.51,121.09A32,32,0,0,0,12,152a32,32,0,0,0,15.87,27.71A31.55,31.55,0,0,0,71.21,168L97,123c6.91-3.46,16-4.57,23.13-.39s10.75,12.62,11.23,20.37c6.9-3.45,16-4.55,23.12-.37s10.49,12.67,11.07,20.3A79.4,79.4,0,0,0,176,123.22a90.33,90.33,0,0,0-37.54-72.68l.18-.32a8,8,0,0,0-2.9-10.93,7.9,7.9,0,0,0-10.84,2.93l-.18.32C85.84,24.38,36.52,37,14.71,75.05c6.85-3.31,15.9-4.6,23-.48S48.43,87.19,48.92,94.94c6.9-3.45,15.94-4.55,23.11-.37S82.78,107.2,83.25,115L57.47,160a15.79,15.79,0,0,1-21.67,5.85A16.06,16.06,0,0,1,30,144a15.83,15.83,0,0,1,9.63-7.46Z"/><path d="M156,8l-15.17,9.45A10,10,0,1,0,156,26Z"/><path d="M180,32l-12.13,8.1A8.69,8.69,0,0,0,164,47.43a8,8,0,1,0,16,0Z"/><path d="M120,8l-9.1,5.4a5.65,5.65,0,0,0-2.9,4.89,6,6,0,0,0,12,0Z"/></svg>