<svg id="Cloud" xmlns="http://www.w3.org/2000/svg" viewBox="0 0 192 192"><title>Worker_Briefcase</title><path d="M97.75,143.54l8.23,7.75L99.28,168H60V144h23l4.61-11.49A72.84,72.84,0,0,0,97.75,143.54ZM130,52a22,22,0,1,0-22-22A22,22,0,0,0,130,52Zm38,32H144L127.67,63.6A10,10,0,0,0,120,60H84L60.16,75.31,49.46,64.6,24,90.06,57.94,124,83.4,98.54,74.89,90,92,80h9c-1.54,8.45-4.61,25.38-5.83,32-1.84,10,1.24,13.78,10.77,22.77,4.69,4.43,14,13.19,14,13.19l4,36h24l-4.57-45.54-20.78-20.78L127,94l9,10h32Z"/></svg>