<svg id="Cloud" xmlns="http://www.w3.org/2000/svg" viewBox="0 0 192 192"><title>Zombie</title><path d="M188,60a7.8,7.8,0,0,1-.57,3L180,88l-38.24,16.62L128,128c-5.17,7.91-12.5,12-24,12l-8.34,20.77C127,163.67,152,174.35,152,184H12c0-9.12,18.57-19.15,46.06-22.68L76,128,44,108,56,60c10.53,0,18.17,10.42,16,20L68,96l20,8c16-28-5.44-58.17-5.44-58.17l-8,2.67a8,8,0,0,1-10.12-5.06A7.15,7.15,0,0,1,64,41a7.87,7.87,0,0,1,5.47-7.67L88,28s20,12,24,40c12-20,4-36,4-36l-11.58-4.84A8,8,0,0,1,108,12a7.91,7.91,0,0,1,3.58.85L128,20s16,20,4,48l16-28-3.59-21.47a8,8,0,0,1,5.06-10.12A8.26,8.26,0,0,1,152,8a8,8,0,0,1,7.59,5.47L168,40,144,84l20-8,8.57-19A8,8,0,0,1,188,60Zm-34.42,58.05-16,28L148,152l16-28Zm16.85,22.71-12,16L168,164l12-16Z"/></svg>